<?xml version="1.0" standalone="no"?>
<!DOCTYPE svg PUBLIC "-//W3C//DTD SVG 20010904//EN"
 "http://www.w3.org/TR/2001/REC-SVG-20010904/DTD/svg10.dtd">
<svg version="1.0" xmlns="http://www.w3.org/2000/svg"
 width="200.000000pt" height="268.000000pt" viewBox="0 0 200.000000 268.000000"
 preserveAspectRatio="xMidYMid meet">

<g transform="translate(0.000000,268.000000) scale(0.100000,-0.100000)"
fill="#000000" stroke="none">
<path d="M665 2640 c-4 -6 7 -10 24 -10 17 0 31 5 31 10 0 6 -11 10 -24 10
-14 0 -28 -4 -31 -10z"/>
<path d="M1235 2620 c3 -5 15 -10 26 -10 10 0 19 5 19 10 0 6 -12 10 -26 10
-14 0 -23 -4 -19 -10z"/>
<path d="M800 2612 c0 -14 39 -46 47 -39 3 4 -2 16 -12 27 -19 21 -35 26 -35
12z"/>
<path d="M1110 2589 c-7 -11 -10 -22 -8 -25 6 -6 48 26 48 37 0 17 -29 9 -40
-12z"/>
<path d="M574 2555 c-8 -13 -14 -32 -12 -42 3 -14 9 -11 26 17 12 19 22 38 22
43 0 16 -20 6 -36 -18z"/>
<path d="M1350 2556 c0 -9 7 -16 16 -16 9 0 14 5 12 12 -6 18 -28 21 -28 4z"/>
<path d="M1164 2525 c-38 -41 -66 -110 -88 -220 -13 -69 -36 -273 -36 -327 0
-15 -9 -18 -53 -18 l-54 0 -12 115 c-15 138 -53 313 -81 369 -34 69 -66 98
-113 103 -37 4 -47 1 -74 -24 -34 -32 -48 -71 -64 -183 -11 -72 -7 -271 7
-401 l7 -57 -46 -20 c-126 -56 -294 -207 -365 -327 -22 -38 -53 -106 -68 -150
-25 -71 -28 -94 -28 -210 0 -116 3 -139 28 -210 83 -241 297 -437 569 -521 45
-14 56 -21 51 -33 -36 -91 -59 -361 -30 -361 11 0 15 17 15 78 0 75 19 189 42
260 9 28 15 33 33 27 11 -4 62 -9 111 -12 l90 -5 22 -99 c37 -170 108 -248
233 -257 108 -8 224 70 277 184 26 58 25 97 -2 74 -8 -7 -15 -19 -15 -27 0
-43 -81 -143 -141 -173 -90 -46 -179 -34 -244 34 -45 46 -67 105 -86 231 -7
47 -19 88 -29 100 -27 30 -50 81 -50 109 0 57 64 74 88 23 17 -36 32 -26 32
22 0 46 14 61 57 61 34 0 53 -21 53 -59 0 -12 7 -21 15 -21 9 0 15 9 15 23 0
33 28 67 54 67 52 0 69 -59 41 -140 -15 -42 -15 -44 27 -151 24 -62 48 -109
55 -109 19 0 16 19 -12 94 -14 37 -25 70 -25 75 0 5 19 16 43 26 23 9 59 28
81 42 21 13 42 21 46 16 24 -24 77 -246 105 -435 4 -24 11 -38 21 -38 16 0 15
10 -17 196 -19 113 -50 228 -75 276 -14 26 -13 28 29 57 136 93 263 294 293
463 59 324 -112 633 -442 798 l-75 37 -2 234 c-2 195 -5 244 -21 296 -38 128
-122 171 -192 98z m107 -7 c36 -30 55 -82 74 -202 8 -50 8 -357 -1 -401 l-6
-34 88 -41 c200 -92 344 -247 419 -450 24 -65 28 -90 29 -190 1 -95 -3 -128
-22 -190 -68 -214 -205 -374 -406 -471 -101 -49 -109 -50 -90 -4 7 19 14 57
14 85 0 41 -5 56 -25 75 -31 31 -84 34 -110 5 -16 -17 -21 -18 -34 -7 -40 35
-107 26 -130 -16 -10 -18 -19 -22 -50 -19 -32 3 -42 -1 -60 -23 -38 -49 -26
-116 33 -183 l19 -22 -39 0 c-68 0 -226 28 -299 53 -96 33 -168 70 -248 129
-309 228 -394 603 -206 914 74 122 210 243 344 305 l68 32 -7 71 c-36 382 -3
586 94 586 80 0 143 -171 173 -470 l12 -115 80 0 80 0 12 135 c15 172 28 248
56 334 33 105 91 152 138 114z"/>
<path d="M997 1464 c-24 -24 33 -94 102 -126 52 -23 141 -30 148 -10 3 8 -5
12 -24 12 -79 0 -174 52 -208 113 -6 10 -13 15 -18 11z"/>
<path d="M782 1431 c-28 -64 -90 -101 -169 -101 -23 0 -33 -5 -33 -15 0 -11
12 -15 45 -15 52 0 109 21 143 53 28 26 64 92 55 101 -14 13 -29 5 -41 -23z"/>
<path d="M1038 1229 c-28 -10 -38 -42 -19 -54 6 -3 8 -32 5 -64 l-4 -58 116
-5 c101 -5 118 -8 135 -27 25 -27 59 -35 107 -26 47 9 62 21 62 51 0 30 -35
54 -80 55 -19 0 -29 3 -22 6 10 4 10 8 1 20 -9 10 -9 17 -2 21 6 4 13 17 17
30 6 19 2 25 -26 36 -44 19 -254 29 -290 15z m377 -169 c15 -16 15 -19 -1 -34
-22 -22 -112 -18 -127 5 -30 47 88 74 128 29z"/>
<path d="M596 1219 c-92 -10 -130 -29 -120 -62 4 -12 11 -25 16 -28 5 -3 6
-13 3 -21 -4 -9 0 -18 9 -21 24 -9 19 -27 -7 -27 -35 0 -59 -22 -55 -51 2 -19
10 -25 35 -27 37 -4 73 12 73 32 0 14 25 17 225 29 38 2 40 3 41 37 0 19 -3
40 -7 45 -4 6 -1 25 8 43 30 62 -14 73 -221 51z m-66 -199 c0 -16 -7 -20 -35
-20 -28 0 -35 4 -35 20 0 16 7 20 35 20 28 0 35 -4 35 -20z"/>
<path d="M855 1025 c-14 -13 -25 -33 -25 -43 0 -24 37 -72 56 -72 22 0 17 -60
-11 -124 -14 -31 -25 -63 -25 -71 0 -31 19 -13 44 40 14 30 27 55 30 55 2 0
17 -20 33 -45 15 -25 34 -45 41 -45 19 0 14 17 -22 73 -19 28 -37 64 -40 79
-5 23 -2 30 24 43 28 14 50 49 50 76 0 5 -11 21 -25 34 -18 19 -35 25 -65 25
-30 0 -47 -6 -65 -25z m96 -15 c21 -12 25 -40 7 -58 -17 -17 -64 -15 -82 4
-21 21 -20 30 6 48 26 19 42 20 69 6z"/>
<path d="M880 2501 c0 -12 5 -21 10 -21 6 0 10 6 10 14 0 8 -4 18 -10 21 -5 3
-10 -3 -10 -14z"/>
<path d="M1046 2474 c-9 -23 -7 -54 3 -54 9 0 21 33 21 58 0 17 -17 15 -24 -4z"/>
<path d="M1404 2454 c3 -9 6 -18 6 -20 0 -2 5 -4 10 -4 6 0 10 9 10 20 0 12
-7 20 -16 20 -11 0 -14 -5 -10 -16z"/>
<path d="M527 2403 c-11 -10 -8 -53 3 -53 6 0 10 14 10 30 0 31 -2 35 -13 23z"/>
<path d="M920 2361 c0 -20 17 -37 27 -28 7 8 -7 47 -18 47 -5 0 -9 -9 -9 -19z"/>
<path d="M1430 2346 c0 -26 15 -43 24 -28 7 12 -4 52 -15 52 -5 0 -9 -11 -9
-24z"/>
<path d="M996 2314 c-3 -9 -6 -25 -6 -37 1 -22 1 -22 15 -3 17 22 20 56 6 56
-5 0 -12 -7 -15 -16z"/>
<path d="M512 2238 c2 -18 8 -33 13 -33 6 0 11 15 13 33 3 24 -1 32 -13 32
-12 0 -16 -8 -13 -32z"/>
<path d="M1446 2253 c-11 -11 -6 -23 9 -23 8 0 15 4 15 9 0 13 -16 22 -24 14z"/>
<path d="M1457 2153 c-11 -10 -8 -43 3 -43 6 0 10 11 10 25 0 26 -2 29 -13 18z"/>
<path d="M520 2110 c0 -11 5 -20 10 -20 6 0 10 9 10 20 0 11 -4 20 -10 20 -5
0 -10 -9 -10 -20z"/>
<path d="M1457 2053 c-11 -10 -8 -43 3 -43 6 0 10 11 10 25 0 26 -2 29 -13 18z"/>
<path d="M520 2005 c0 -14 5 -25 10 -25 6 0 10 11 10 25 0 14 -4 25 -10 25 -5
0 -10 -11 -10 -25z"/>
<path d="M1460 1946 c0 -9 5 -16 10 -16 6 0 10 4 10 9 0 6 -4 13 -10 16 -5 3
-10 -1 -10 -9z"/>
<path d="M468 1904 c-25 -13 -38 -34 -23 -34 14 0 65 32 65 40 0 13 -10 12
-42 -6z"/>
<path d="M1545 1890 c3 -5 13 -10 21 -10 8 0 14 5 14 10 0 6 -9 10 -21 10 -11
0 -17 -4 -14 -10z"/>
<path d="M1630 1840 c0 -13 28 -25 38 -16 3 4 0 11 -8 16 -20 13 -30 12 -30 0z"/>
<path d="M335 1820 c-10 -11 -16 -23 -12 -26 7 -7 57 25 57 37 0 16 -26 9 -45
-11z"/>
<path d="M1722 1758 c16 -24 38 -35 38 -20 0 14 -29 42 -42 42 -6 0 -4 -9 4
-22z"/>
<path d="M220 1715 c-7 -9 -10 -18 -7 -22 8 -7 37 15 37 28 0 14 -16 11 -30
-6z"/>
<path d="M1806 1672 c-3 -6 -1 -14 5 -17 15 -10 25 3 12 16 -7 7 -13 7 -17 1z"/>
<path d="M130 1608 c-22 -36 -25 -48 -11 -48 12 0 51 54 51 69 0 22 -21 10
-40 -21z"/>
<path d="M1860 1586 c0 -15 18 -31 26 -23 7 7 -7 37 -17 37 -5 0 -9 -6 -9 -14z"/>
<path d="M1900 1513 c0 -5 4 -15 10 -23 11 -18 25 -7 17 15 -6 15 -27 21 -27
8z"/>
<path d="M69 1484 c-5 -15 -7 -30 -3 -33 7 -7 34 28 34 46 0 23 -20 14 -31
-13z"/>
<path d="M31 1382 c-13 -25 -14 -82 -2 -82 11 0 27 88 18 96 -3 3 -10 -3 -16
-14z"/>
<path d="M1950 1370 c0 -11 7 -20 15 -20 17 0 18 2 9 24 -9 23 -24 20 -24 -4z"/>
<path d="M1970 1250 c0 -16 5 -30 10 -30 6 0 10 14 10 30 0 17 -4 30 -10 30
-5 0 -10 -13 -10 -30z"/>
<path d="M7 1203 c-11 -10 -8 -61 3 -68 6 -4 10 10 10 34 0 42 -2 46 -13 34z"/>
<path d="M1960 1095 c0 -14 5 -25 10 -25 6 0 10 11 10 25 0 14 -4 25 -10 25
-5 0 -10 -11 -10 -25z"/>
<path d="M10 1031 c0 -16 5 -33 10 -36 6 -4 10 6 10 24 0 16 -4 33 -10 36 -6
4 -10 -6 -10 -24z"/>
<path d="M1944 996 c-8 -22 3 -33 18 -18 9 9 9 15 0 24 -9 9 -13 7 -18 -6z"/>
<path d="M40 911 c0 -20 17 -37 27 -28 7 8 -7 47 -18 47 -5 0 -9 -9 -9 -19z"/>
<path d="M1907 898 c-7 -25 -3 -33 12 -23 13 8 15 45 2 45 -5 0 -11 -10 -14
-22z"/>
<path d="M1863 815 c-3 -9 -3 -18 0 -21 9 -9 27 6 27 22 0 19 -19 18 -27 -1z"/>
<path d="M90 792 c0 -11 9 -27 20 -37 22 -20 26 -9 8 30 -13 29 -28 33 -28 7z"/>
<path d="M1795 704 c-9 -14 -14 -28 -11 -31 7 -7 34 15 47 39 16 29 -16 23
-36 -8z"/>
<path d="M162 679 c2 -7 10 -15 17 -17 8 -3 12 1 9 9 -2 7 -10 15 -17 17 -8 3
-12 -1 -9 -9z"/>
<path d="M1712 609 c-14 -14 -18 -25 -11 -28 15 -5 42 24 37 40 -3 8 -11 5
-26 -12z"/>
<path d="M230 605 c0 -15 38 -40 47 -31 7 7 -26 46 -39 46 -4 0 -8 -7 -8 -15z"/>
<path d="M1640 526 c0 -9 7 -16 16 -16 9 0 14 5 12 12 -6 18 -28 21 -28 4z"/>
<path d="M342 518 c6 -17 36 -34 45 -24 4 4 -1 14 -11 22 -24 17 -39 18 -34 2z"/>
<path d="M430 460 c0 -12 40 -33 48 -25 4 4 -2 13 -12 21 -23 16 -36 18 -36 4z"/>
<path d="M1670 433 c0 -5 4 -15 10 -23 11 -18 25 -7 17 15 -6 15 -27 21 -27 8z"/>
<path d="M540 410 c0 -13 48 -36 57 -26 9 8 -6 22 -34 31 -14 4 -23 2 -23 -5z"/>
<path d="M798 358 c-5 -13 5 -164 17 -270 6 -46 11 -58 24 -58 16 0 17 6 9 58
-4 31 -11 106 -15 166 -5 66 -12 111 -19 113 -6 2 -14 -2 -16 -9z"/>
<path d="M635 329 c-4 -11 -4 -23 0 -27 7 -7 25 17 25 36 0 20 -18 14 -25 -9z"/>
<path d="M1700 326 c0 -8 5 -18 10 -21 6 -3 10 3 10 14 0 12 -4 21 -10 21 -5
0 -10 -6 -10 -14z"/>
<path d="M604 215 c-3 -14 -3 -33 0 -42 6 -15 8 -15 16 -3 13 20 13 70 0 70
-5 0 -12 -11 -16 -25z"/>
<path d="M1720 225 c0 -8 5 -15 10 -15 6 0 10 7 10 15 0 8 -4 15 -10 15 -5 0
-10 -7 -10 -15z"/>
<path d="M1730 125 c0 -17 5 -25 13 -22 6 2 12 12 12 22 0 10 -6 20 -12 23 -8
2 -13 -6 -13 -23z"/>
<path d="M595 80 c3 -5 10 -10 16 -10 5 0 9 5 9 10 0 6 -7 10 -16 10 -8 0 -12
-4 -9 -10z"/>
</g>
</svg>
